<?xml version="1.0" encoding="UTF-8" standalone="no"?>
<svg
   xmlns:dc="http://purl.org/dc/elements/1.1/"
   xmlns:cc="http://creativecommons.org/ns#"
   xmlns:rdf="http://www.w3.org/1999/02/22-rdf-syntax-ns#"
   xmlns:svg="http://www.w3.org/2000/svg"
   xmlns="http://www.w3.org/2000/svg"
   xmlns:sodipodi="http://sodipodi.sourceforge.net/DTD/sodipodi-0.dtd"
   xmlns:inkscape="http://www.inkscape.org/namespaces/inkscape"
   version="1.1"
   viewBox="0 0 245 240"
   id="Layer_1"
   sodipodi:docname="discord.svg"
   inkscape:version="0.92.4 (5da689c313, 2019-01-14)">
  <sodipodi:namedview
     pagecolor="#ffffff"
     bordercolor="#666666"
     borderopacity="1"
     objecttolerance="10"
     gridtolerance="10"
     guidetolerance="10"
     inkscape:pageopacity="0"
     inkscape:pageshadow="2"
     inkscape:window-width="2560"
     inkscape:window-height="1384"
     id="namedview6"
     showgrid="false"
     inkscape:zoom="25.183682"
     inkscape:cx="23.020304"
     inkscape:cy="217.2533"
     inkscape:window-x="0"
     inkscape:window-y="0"
     inkscape:window-maximized="1"
     inkscape:current-layer="Layer_1" />
  <metadata
     id="metadata11">
    <rdf:RDF>
      <cc:Work
         rdf:about="">
        <dc:format>image/svg+xml</dc:format>
        <dc:type
           rdf:resource="http://purl.org/dc/dcmitype/StillImage" />
        <dc:title />
      </cc:Work>
    </rdf:RDF>
  </metadata>
  <defs
     id="defs9" />
  <path
     id="path2"
     d="m 14.498894,0 c 0.983646,0 1.777,0.79545203 1.823874,1.7315249 V 16.790543 L 14.449921,15.200339 13.4215,14.264267 12.299333,13.286218 12.768068,14.828849 H 2.9469993 C 1.9661517,14.828849 1.17,14.083769 1.17,13.096624 V 1.735023 C 1.17,0.79895007 1.9675509,0.00209882 2.9504973,0.00209882 H 14.493997 Z m -4.28019,3.975861 h -0.02099 l -0.14132,0.1399211 c 1.450283,0.4197637 2.151987,1.0752945 2.151987,1.0752945 -0.934676,-0.4673368 -1.777002,-0.7010052 -2.6193278,-0.795452 -0.6086575,-0.094445 -1.2173148,-0.044774 -1.7315252,0 H 7.7176127 c -0.328815,0 -1.0284209,0.1399212 -1.9658929,0.5142105 -0.3267162,0.1420199 -0.5142105,0.2350674 -0.5142105,0.2350674 0,0 0.7010053,-0.7010051 2.2457353,-1.0752944 l -0.094447,-0.094447 c 0,0 -1.1697414,-0.044774 -2.43253,0.8884997 0,0 -1.2627888,2.1995613 -1.2627888,4.9112332 0,0 0.699606,1.217315 2.618625,1.263488 0,0 0.2798426,-0.372889 0.5631829,-0.701003 C 5.7978931,10.009962 5.3781294,9.3551309 5.3781294,9.3551309 c 0,0 0.093748,0.046174 0.2343681,0.1399209 h 0.041976 c 0.020988,0 0.030784,0.010486 0.041976,0.02099 v 0.00421 c 0.011197,0.011197 0.020988,0.02099 0.041976,0.02099 0.23087,0.095146 0.4617401,0.1888939 0.6506336,0.2798427 a 5.7227772,5.7227772 0 0 0 1.2592915,0.3749865 c 0.6506337,0.09444 1.3964135,0.139921 2.245736,0 0.4197644,-0.09444 0.8395274,-0.186794 1.2592914,-0.3742879 0.272846,-0.1399222 0.608656,-0.2798429 0.977348,-0.5156103 0,0 -0.419763,0.6548308 -1.542631,0.9822462 0.23087,0.326017 0.556187,0.699607 0.556187,0.699607 1.919718,-0.04198 2.665499,-1.2592908 2.707476,-1.2075204 0,-2.7074753 -1.269787,-4.9112342 -1.269787,-4.9112342 C 11.438116,4.0199466 10.367719,3.9877647 10.178826,3.9877647 l 0.03919,-0.013993 z m 0.117534,3.0873614 c 0.491823,0 0.8885,0.4197635 0.8885,0.9339741 0,0.5177083 -0.398775,0.937472 -0.8885,0.937472 -0.4897244,0 -0.8884992,-0.4197637 -0.8884992,-0.9332744 0.00141,-0.5177086 0.4008743,-0.9360729 0.8884992,-0.9360729 z m -3.1783101,0 c 0.4897243,0 0.8857013,0.4197635 0.8857013,0.9339741 0,0.5177083 -0.3987754,0.937472 -0.8884996,0.937472 -0.4897243,0 -0.8884998,-0.4197637 -0.8884998,-0.9332744 0,-0.5177086 0.3987755,-0.9360729 0.8884998,-0.9360729 z"
     inkscape:connector-curvature="0"
     style="stroke-width:0.699606" />
</svg>
